HIERARCHY
ROOT Hips
{
	OFFSET -14.64140 90.27770 -84.91600
	CHANNELS 6 Xposition Yposition Zposition Zrotation Xrotation Yrotation
	JOINT Spine
	{
		OFFSET 0.00000 13.20850 -1.60436
		CHANNELS 3 Zrotation Xrotation Yrotation
		JOINT Spine1
		{
			OFFSET 0.00000 8.61716 0.00000
			CHANNELS 3 Zrotation Xrotation Yrotation
			JOINT Spine2
			{
				OFFSET 0.00000 8.61717 0.00000
				CHANNELS 3 Zrotation Xrotation Yrotation
				JOINT Spine3
				{
					OFFSET 0.00000 8.61717 0.00000
					CHANNELS 3 Zrotation Xrotation Yrotation
					JOINT Neck
					{
						OFFSET 0.00000 11.07920 1.10792
						CHANNELS 3 Zrotation Xrotation Yrotation
						JOINT Neck1
						{
							OFFSET 0.00000 7.08032 0.00000
							CHANNELS 3 Zrotation Xrotation Yrotation
							JOINT Head
							{
								OFFSET 0.00000 7.08031 0.00000
								CHANNELS 3 Zrotation Xrotation Yrotation
								End site
								{
									OFFSET 0.00000 0.00000 0.00000
								}
							}
						}
					}
					JOINT RightShoulder
					{
						OFFSET -0.01000 7.91373 5.19711
						CHANNELS 3 Zrotation Xrotation Yrotation
						JOINT RightArm
						{
							OFFSET -18.41580 0.00000 0.00000
							CHANNELS 3 Zrotation Xrotation Yrotation
							JOINT RightForeArm
							{
								OFFSET -29.11090 0.00000 0.00000
								CHANNELS 3 Zrotation Xrotation Yrotation
								JOINT RightHand
								{
									OFFSET -24.65040 0.00000 0.00000
									CHANNELS 3 Zrotation Xrotation Yrotation
									JOINT RightHandThumb1
									{
										OFFSET -5.35114 -0.85590 3.97906
										CHANNELS 3 Zrotation Xrotation Yrotation
										JOINT RightHandThumb2
										{
											OFFSET -4.52789 0.00000 0.00000
											CHANNELS 3 Zrotation Xrotation Yrotation
											JOINT RightHandThumb3
											{
												OFFSET -2.46976 0.00000 0.00000
												CHANNELS 3 Zrotation Xrotation Yrotation
												End site
												{
													OFFSET 0.00000 0.00000 0.00000
												}
											}
										}
									}
									JOINT RightHandIndex1
									{
										OFFSET -14.26970 0.00000 2.88139
										CHANNELS 3 Zrotation Xrotation Yrotation
										JOINT RightHandIndex2
										{
											OFFSET -5.48836 0.00000 0.00000
											CHANNELS 3 Zrotation Xrotation Yrotation
											JOINT RightHandIndex3
											{
												OFFSET -3.01859 0.00000 0.00000
												CHANNELS 3 Zrotation Xrotation Yrotation
												End site
												{
													OFFSET 0.00000 0.00000 0.00000
												}
											}
										}
									}
									JOINT RightHandMiddle1
									{
										OFFSET -14.26970 0.00000 -0.09147
										CHANNELS 3 Zrotation Xrotation Yrotation
										JOINT RightHandMiddle2
										{
											OFFSET -6.17441 0.00000 0.00000
											CHANNELS 3 Zrotation Xrotation Yrotation
											JOINT RightHandMiddle3
											{
												OFFSET -3.56743 0.00000 0.00000
												CHANNELS 3 Zrotation Xrotation Yrotation
												End site
												{
													OFFSET 0.00000 0.00000 0.00000
												}
											}
										}
									}
									JOINT RightHandRing1
									{
										OFFSET -12.69180 0.00000 -3.06433
										CHANNELS 3 Zrotation Xrotation Yrotation
										JOINT RightHandRing2
										{
											OFFSET -5.62556 0.00000 0.00000
											CHANNELS 3 Zrotation Xrotation Yrotation
											JOINT RightHandRing3
											{
												OFFSET -3.56744 0.00000 0.00000
												CHANNELS 3 Zrotation Xrotation Yrotation
												End site
												{
													OFFSET 0.00000 0.00000 0.00000
												}
											}
										}
									}
									JOINT RightHandPinky1
									{
										OFFSET -11.11390 0.00000 -6.03719
										CHANNELS 3 Zrotation Xrotation Yrotation
										JOINT RightHandPinky2
										{
											OFFSET -4.52789 0.00000 0.00000
											CHANNELS 3 Zrotation Xrotation Yrotation
											JOINT RightHandPinky3
											{
												OFFSET -2.46976 0.00000 0.00000
												CHANNELS 3 Zrotation Xrotation Yrotation
												End site
												{
													OFFSET 0.00000 0.00000 0.00000
												}
											}
										}
									}
								}
							}
						}
					}
					JOINT LeftShoulder
					{
						OFFSET 0.01000 7.91373 5.19711
						CHANNELS 3 Zrotation Xrotation Yrotation
						JOINT LeftArm
						{
							OFFSET 18.41580 0.00000 0.00000
							CHANNELS 3 Zrotation Xrotation Yrotation
							JOINT LeftForeArm
							{
								OFFSET 29.11090 0.00000 0.00000
								CHANNELS 3 Zrotation Xrotation Yrotation
								JOINT LeftHand
								{
									OFFSET 24.65040 0.00000 0.00000
									CHANNELS 3 Zrotation Xrotation Yrotation
									JOINT LeftHandThumb1
									{
										OFFSET 5.35114 -0.85590 3.97906
										CHANNELS 3 Zrotation Xrotation Yrotation
										JOINT LeftHandThumb2
										{
											OFFSET 4.52789 0.00000 0.00000
											CHANNELS 3 Zrotation Xrotation Yrotation
											JOINT LeftHandThumb3
											{
												OFFSET 2.46977 0.00000 0.00000
												CHANNELS 3 Zrotation Xrotation Yrotation
												End site
												{
													OFFSET 0.00000 0.00000 0.00000
												}
											}
										}
									}
									JOINT LeftHandIndex1
									{
										OFFSET 14.26970 0.00000 2.88139
										CHANNELS 3 Zrotation Xrotation Yrotation
										JOINT LeftHandIndex2
										{
											OFFSET 5.48836 0.00000 0.00000
											CHANNELS 3 Zrotation Xrotation Yrotation
											JOINT LeftHandIndex3
											{
												OFFSET 3.01859 0.00000 0.00000
												CHANNELS 3 Zrotation Xrotation Yrotation
												End site
												{
													OFFSET 0.00000 0.00000 0.00000
												}
											}
										}
									}
									JOINT LeftHandMiddle1
									{
										OFFSET 14.26970 0.00000 -0.09147
										CHANNELS 3 Zrotation Xrotation Yrotation
										JOINT LeftHandMiddle2
										{
											OFFSET 6.17440 0.00000 0.00000
											CHANNELS 3 Zrotation Xrotation Yrotation
											JOINT LeftHandMiddle3
											{
												OFFSET 3.56744 0.00000 0.00000
												CHANNELS 3 Zrotation Xrotation Yrotation
												End site
												{
													OFFSET 0.00000 0.00000 0.00000
												}
											}
										}
									}
									JOINT LeftHandRing1
									{
										OFFSET 12.69180 0.00000 -3.06433
										CHANNELS 3 Zrotation Xrotation Yrotation
										JOINT LeftHandRing2
										{
											OFFSET 5.62556 0.00000 0.00000
											CHANNELS 3 Zrotation Xrotation Yrotation
											JOINT LeftHandRing3
											{
												OFFSET 3.56744 0.00000 0.00000
												CHANNELS 3 Zrotation Xrotation Yrotation
												End site
												{
													OFFSET 0.00000 0.00000 0.00000
												}
											}
										}
									}
									JOINT LeftHandPinky1
									{
										OFFSET 11.11390 0.00000 -6.03719
										CHANNELS 3 Zrotation Xrotation Yrotation
										JOINT LeftHandPinky2
										{
											OFFSET 4.52789 0.00000 0.00000
											CHANNELS 3 Zrotation Xrotation Yrotation
											JOINT LeftHandPinky3
											{
												OFFSET 2.46976 0.00000 0.00000
												CHANNELS 3 Zrotation Xrotation Yrotation
												End site
												{
													OFFSET 0.00000 0.00000 0.00000
												}
											}
										}
									}
								}
							}
						}
					}
					JOINT pCube4
					{
						OFFSET 0.00000 10.91090 1.10792
						CHANNELS 3 Zrotation Xrotation Yrotation
						End site
						{
							OFFSET 0.00000 0.00000 0.00000
						}
					}
				}
			}
		}
	}
	JOINT RightUpLeg
	{
		OFFSET -9.98441 0.00000 0.00000
		CHANNELS 3 Zrotation Xrotation Yrotation
		JOINT RightLeg
		{
			OFFSET 0.00000 -42.11790 0.00000
			CHANNELS 3 Zrotation Xrotation Yrotation
			JOINT RightFoot
			{
				OFFSET 0.00000 -45.00020 -0.00001
				CHANNELS 3 Zrotation Xrotation Yrotation
				JOINT RightForeFoot
				{
					OFFSET 0.00000 -3.74820 0.00000
					CHANNELS 3 Zrotation Xrotation Yrotation
					JOINT RightToeBase
					{
						OFFSET 0.00000 0.06325 14.43120
						CHANNELS 3 Zrotation Xrotation Yrotation
						End site
						{
							OFFSET 0.00000 0.00000 0.00000
						}
					}
				}
			}
		}
	}
	JOINT LeftUpLeg
	{
		OFFSET 9.98441 0.00000 0.00000
		CHANNELS 3 Zrotation Xrotation Yrotation
		JOINT LeftLeg
		{
			OFFSET 0.00000 -42.11800 0.00000
			CHANNELS 3 Zrotation Xrotation Yrotation
			JOINT LeftFoot
			{
				OFFSET 0.00000 -45.00070 0.00000
				CHANNELS 3 Zrotation Xrotation Yrotation
				JOINT LeftForeFoot
				{
					OFFSET 0.00000 -3.74824 0.00000
					CHANNELS 3 Zrotation Xrotation Yrotation
					JOINT LeftToeBase
					{
						OFFSET 0.00000 0.06325 14.43110
						CHANNELS 3 Zrotation Xrotation Yrotation
						End site
						{
							OFFSET 0.00000 0.00000 0.00000
						}
					}
				}
			}
		}
	}
}
MOTION
Frames: 4
Frame Time: 0.050000
0.04544904923422854 -0.049989614534343876 0.0165256233007956 -0.01801373651464922 -0.022320029089589313 -0.033633205256046066 3.5335009180424533 3.499910027161086 -1.9606433005114303 -0.8522331942913057 3.5136507500072964 0.3398590959173218 -0.6473978012539003 -0.8147679734901931 -0.24620459289891208 -0.15315889811714575 -0.04667666046747232 -0.5116612532743265 0.010139930619039728 11.85886413466613 -0.8594623274384232 0.32629624964179066 -0.36358278184105636 -1.6273027148791643 0.6271942475055845 -16.382958313361407 -0.17867617957112933 -7.632420634110962 2.9776199425138192 -16.139103011111168 77.60065191934778 5.564366436450146 9.808997937178555 6.011603807665819 1.5239485299503397 96.82520288273359 3.4599185563753863 0.057728000560509765 -0.03236660484564186 4.519679954993363 -0.09387915984241885 -1.5595661861462817 -0.001752691142371126 0.028041152734998537 -56.21711162901684 -0.016875179869337446 -0.022653797534551472 -56.25519606753502 -38.814249387122096 -0.03923243825478854 0.012543279113330065 -0.008119801624908015 -0.02342213833559598 0.0489722748717444 -0.019522950840623794 0.03581651293152501 -0.03456466539603274 -36.67863998234644 0.0019459178688247059 -0.021745819029925385 -0.014963069008274734 -0.03689084503425192 0.03996027150327373 -0.021892687802314147 0.015263340957113203 0.008178129195695513 -19.766666242283254 -0.03807965754635856 -0.045055932788449285 -0.00751422580617045 0.014637187177008846 0.04882427191214712 -0.00939671104265291 -0.023897442400310692 -0.029462002830979602 24.05874577661302 -0.0362123157280915 0.04686007455399774 28.856812874584772 0.027648840078745296 -0.012295285428229556 28.83103944375191 0.04892686950871254 -0.01948169168041321 8.69706906360861 2.210800564726969 13.015720947385699 -72.43375500991392 27.29838308818372 -18.168714588839013 -17.953831548841755 1.4548860448389191 -90.85001396752854 -10.371468754329932 -7.047038274809701 3.4521613176855213 -0.46054720012813233 0.026009831719453418 -8.142350376625341 -0.00103409315362074 0.048093347772657134 44.56373193645759 -0.03466373831915927 -0.034369547910961445 44.578227220469195 12.426085527212432 0.0321764391323514 0.008667326924641804 0.007807899047517231 0.027010309916840114 -0.04827226587615365 0.020756622928710833 -0.009153071472383215 -0.017236520617005115 11.150204854349765 -0.0030052632174360243 -0.0002963367568812231 0.01735417317535794 0.019125559989350515 0.02808059219421287 0.0026614571290458425 0.041540280337586256 -0.0474876688056372 4.738007277403429 -0.04483674473636566 -0.029383114788661242 0.011876382905097937 -0.02977468745450262 0.0366375980118851 0.046417596932265694 -0.02365870421217263 0.023721822641923327 -5.574885495838811 -0.024769545884313827 -0.042748082531257205 -6.7063674591656675 -0.005303125644886876 -0.04514284035173663 -6.6961119191416785 0.006807138354508504 -0.02211360906119783 0.02263043041667105 -0.0370333412938351 0.014959015112109066 8.057132384698797 3.446036263199014 -19.26321619442294 0.01088198317626849 10.383841735803427 0.024901851286353943 -5.644818468634649 -15.635235892360864 3.227653625217336 -0.03280414974600431 -0.008372218882016634 -0.010844137797927368 0.02079710479321533 4.73909018048137 -0.045757521731623056 12.43220411285467 -8.25917091140961 6.873136191660426 -0.035654892987818355 46.33623326538977 0.009296143468811233 -4.340761519314506 -14.706374574184489 -3.8359865260775683 -0.04699139784977667 -0.015546428965263337 -0.02522129511497711 0.027808981933641914 -10.70330804506266 -0.02892566205327703 
-0.01987431306496334 -0.03205969907185068 -0.044412808022715765 -0.00013988229625341638 0.006734499783665232 -0.028193421082270888 3.2051585694534452 3.596090622102384 -1.8954367818161773 -0.8263168796954672 3.453006348886958 0.4102761236090894 -0.6926141667987181 -0.7484983298497483 -0.3020144207111074 -0.10260592289885626 -0.05286627874923884 -0.5145669123762154 -0.12425229313787332 11.718826596640914 -0.7312118127113498 0.3329876650796986 -0.4690542943890044 -1.4516885459329323 0.546384115708581 -16.355954653398065 -0.17920707327390312 -7.213555860261638 2.881978801300712 -16.043119502430475 77.33998571479803 5.604213996950475 8.40720079736633 7.972368821650321 2.523823645974217 95.97308221123106 4.030701133129843 0.0024634434444586375 -0.41738007681786193 4.511997361999946 -0.15007942189950252 -1.548577444300009 -0.03279625318858676 0.041690659193344436 -56.22710621865864 -0.041139323046302495 -0.02917018474172921 -56.19848829177306 -38.78076698103857 0.0030336237751404003 0.02577484870691745 -0.007510317380605115 0.03981202415475051 -0.029531319823777193 0.024605751603100724 -0.008864455802841871 0.006980701643509459 -36.69955932293502 -0.03802765340586826 -0.038732856656693605 -0.03060013809525863 -0.03444125447041446 -0.02001987216857767 -0.010064447071407632 0.01847176929066481 -0.004667753341277001 -19.731609743632497 0.04293635181020821 -0.035971445084964526 0.012883851035806486 0.0349347500781486 -0.010899282617602602 -0.008380391138231653 -0.03117781403520885 0.01104063173584049 24.09963216651228 -0.033275844322769706 0.04284583712007592 28.912969916694202 -0.010420252632578833 0.014392325123579673 28.845051065738087 -0.012223113656875392 -0.03141089630431995 8.390954438309773 2.107370719985816 12.939513826926751 -72.24482821361512 27.140551638473475 -17.269716608453045 -22.480048147598485 3.4758768384320335 -90.7291353421504 -11.908100586234404 -8.053190958418798 4.298405502356261 -0.5180352687470526 0.04639728678589804 -8.089535686109157 0.018118107192401638 -0.022135104871834108 44.55297617215486 -0.01869885352820683 -0.018170228910074738 44.53579132503148 12.43745170297778 -0.0036855959499229674 -0.028313839908984558 0.04110217551089792 -0.01960793473772572 -0.008006470770658646 0.01938172383880127 0.038132376510603194 0.020592233902846542 11.11258810116599 0.011804841027694045 -0.01066036426820952 0.04421325762264668 -0.024113470653144186 -0.0028126236567255335 0.02236915035724987 0.011505765010577084 0.015297295156934548 4.728672284852514 -0.041197911721904665 0.03006890159200713 0.0132990816418526 0.048032054466801324 -0.019199586043825167 -0.004713030043223951 -0.048143485760841126 0.006109919714452094 -5.626793939049035 -0.021377699803211664 0.021202161637349653 -6.749095788347981 0.01661098141915275 0.004266713062734712 -6.680018534955094 -0.03987334742382934 0.02887019474736519 0.024524866878478633 -0.00368839603290452 -0.042166797065703934 8.017521962546315 3.4667923961305687 -19.200773985009775 -0.02652126743176788 10.359846302106314 0.009181557796373339 -5.6120977616826435 -15.618595570953461 3.1471382740510947 -0.022865503230527936 0.04023900849444195 0.038653973409984395 -0.00742517025660816 4.700730264888742 0.0005798828320984358 12.474805224129566 -8.237093435503407 6.891968737244719 0.04364943555502012 46.413720717171245 -0.006422368534802046 -4.321864748871064 -14.703774014387303 -3.8463277029144107 0.024446970554405343 0.04139655151867476 -0.0170119856753457 -0.036640455299659036 -10.719916122653318 0.04848836258668748 
-0.02063736836133269 0.04049109583756118 -0.03026830304057634 0.018142952344356884 -0.03882859460038604 0.029142595538711704 3.0501749724683225 3.726829938984692 -1.8885192190797446 -0.8172809989826523 3.5388270682568908 0.4121106361498267 -0.7201125050877526 -0.72816126739173 -0.30725722372064057 -0.13790298848336585 -0.039443851706036606 -0.49155719569007944 -0.10994864100520751 11.484603045317499 -0.6751483195954374 0.2633727639783856 -0.5364632113999418 -1.308631867251279 0.5409035580399016 -16.40637491304406 -0.17443643250534652 -6.834363875404262 2.7903258123056442 -15.921530950423227 77.28059776643464 5.544360194680731 6.531785187796871 10.28792326052864 3.7142802198854294 93.3052645392153 4.95476962643176 -0.06410304608873651 -1.0726669872327566 4.575570539631773 -0.16101815185666837 -1.5739893483749028 -0.041751005651776925 0.027672289575655512 -56.19902538676221 -0.04435586522299945 0.024903388046226053 -56.28313411579758 -38.73977754178306 0.037621693230933145 -0.0024063199063365185 0.028830518284423304 -0.010710392707619623 -0.03028497305678323 -0.038623022751729755 -0.04342428647754493 0.009728189552202735 -36.683297221925585 0.02591427562266111 0.003308881140014213 0.014860728673525395 -0.003339436565536747 -0.006233978697191234 0.041871148413413335 -0.023091113436783155 0.04295809491487049 -19.758140583532278 0.002782920892921338 -0.012138313390561022 -0.03861272083605543 0.0381961812609383 -0.026853170012497343 0.023393160459387368 -0.038834827212511386 -0.02009795835352947 24.036802780063024 0.008662887970296577 -0.0014738133031387006 28.887287276642066 0.022197133799771472 -0.021147353339827094 28.888975522643918 -0.02225127143094943 -0.024461961836154556 8.121044503978847 2.086973870473491 12.929601937328528 -72.24250967146389 26.621216511063224 -16.03768545130084 -27.087114312885124 5.219766848406803 -89.44882989469235 -12.973964675856053 -8.393944573826682 4.893767648995372 -0.44780456529379803 0.055433972833579176 -8.082961095090242 -0.03589518154073605 0.0076111510387714245 44.53968412539591 0.0055886617635193085 0.005453051836742975 44.605150934494844 12.449419214898503 0.004166038708533165 0.02324306080762603 -0.007680202839965748 -0.0296984480424119 -0.01095086682226758 0.025433271810384663 0.019495585671973143 0.020950841183695355 11.068342899401719 -0.049679461702217695 -0.03242907656489222 -0.009136179057375802 0.023822021003961996 0.04081227913016915 0.0043376132610150565 -0.017005326523344643 -0.023610603330800034 4.805707596120288 -0.028410329452161397 -0.0053598575494386074 0.0054235821917520835 0.04727298697555349 0.017638651047343953 -0.0025398152250493944 -0.024851752043489685 -0.02276664389571577 -5.584374285981916 0.04609716944726896 -0.004211538993095398 -6.743127004786529 0.019244851509334113 -0.01647381404038069 -6.726244226940494 0.005521893978278886 0.03834056204965581 -0.011947755691145838 -0.007541101639066837 -0.013484279167714169 8.093373848784925 3.5231676822107674 -19.23578971436416 0.04765434470367388 10.429118151259482 0.02684586425415122 -5.651506543348316 -15.709499352385041 3.238029003597985 0.04589664076315719 0.016879032450707737 0.03349657402623538 0.008950627185599486 4.673794850466231 -0.03525663812781063 12.412424789461122 -8.25469465643124 6.925132769417872 8.172993148905186e-06 46.35254486940392 -0.04331227256506569 -4.284215390972618 -14.7230788226507 -3.798859383309245 0.01628252716518841 0.04584819590795973 0.0059724401817718015 -0.015578958689620736 -10.703646871590236 0.04082172868541568 
-0.03973050302656169 -0.030746641146017037 -0.023079841360085205 -0.029880767026499746 0.009207840860938104 0.046277772140635116 2.9123366951668506 3.873630272331112 -1.8130799812906526 -0.8646768911079762 3.497445811195377 0.3738154928896857 -0.6452025139950317 -0.7020180851069056 -0.2739965868505183 -0.22062582926629565 0.028962915091558114 -0.5627075062600453 -0.16770389847126743 11.368706198897321 -0.6200472612180226 0.24567666190769155 -0.5769477922072941 -1.3690973638769515 0.50190176353307 -16.540488365070296 -0.08152916199878976 -6.529214296928324 2.6974094164060824 -15.915652389751136 77.38127002983184 5.648501108498202 4.9349935661334765 12.203782534924548 4.785374330153071 89.79012431354282 6.2797686847156005 -0.13343759059098176 -1.5672336954005854 4.519181745593224 -0.09417155371777261 -1.6114362239094557 -0.029871924967255832 -0.01081831488841828 -56.21112310021404 -0.0036890350480812953 -0.018094097642681144 -56.211336340454885 -38.81776490431958 0.031413639983371704 0.03330253180564534 -0.023478967631700834 -0.024115368633114507 -0.00406583369579532 -0.05000148239316997 0.038075891703481565 0.04959940549392458 -36.7285367141414 -0.0027746313622229644 -0.01246096486632219 -0.00238682998791842 0.03495586742254265 -0.020694362905172983 -0.03612592550935904 0.029765504489589995 0.002615528440705342 -19.72562214265047 -0.009653628794270149 -0.005906114620641278 -0.000766087455206064 -0.015809688919766692 0.039989326773381906 0.026568548105646305 0.01991251283558247 0.037298241312555304 24.070256833531896 -0.03876076156070852 0.0066979510028120255 28.90087407488993 0.007617799472692077 -0.026038975516186474 28.826271626809987 -0.012548494439214958 -0.04081103619995825 7.828217698164895 2.086169637031939 12.947319732348886 -72.32356423404228 26.11936931738497 -14.840740606331881 -30.36428787506918 6.418928736794243 -87.6925040447017 -14.018648387204658 -8.320369135780409 5.03729814063565 -0.45439794569361097 0.10170147023967896 -8.11240378917562 0.037054657464473506 -0.04208350618493838 44.519063694852534 -0.011646588627786928 0.02285011821521687 44.57804601482637 12.47879836469061 0.010773358169375634 -0.002740156796232777 -0.016813206287900815 -0.0314013489831753 -0.007684012480849966 -0.023268163549562754 -0.04456508520787513 -0.013543650792173194 11.114800541868009 0.02163172774220145 0.01989228172736567 -0.014335510065042006 0.04840969662115363 -0.03789038041618677 0.038904884153346184 0.015962901583992904 0.004997406963929149 4.753683156160648 0.013341098341649807 0.011434991134986536 0.010280063830288547 -0.02243438248413279 0.0035606783769363127 0.030133186818765985 -0.008471299301489536 -0.017530877011405998 -5.594248118750092 0.019420810319428494 0.023080243894248707 -6.762044884805916 -0.012590168514962922 -0.020615536106524116 -6.758346831371253 -0.013328698868888359 -0.011318544204691527 0.007859806496543694 -0.026879632393376863 0.02017564063489361 8.0274736712593 3.465476937591594 -19.191772034359133 -0.010858455958429703 10.443448255605764 0.023873389946993884 -5.658601117381252 -15.653231205947757 3.1712671093958065 -0.007109749897016784 -0.03601451836963953 0.006659324310975608 0.02049192101607812 4.7004326245234855 -0.015510831739046866 12.42305256058443 -8.216828469485929 6.8903124067467445 0.020989544436823958 46.39912500650355 -0.0015043594415662944 -4.361022558391968 -14.723822456770533 -3.8030880796794393 0.035997604470531935 0.02489434734730504 -0.005653132370387236 0.0058485648975211135 -10.730207760922264 -0.03661239544010266 
